# xmcd
#
# Track frame offsets: 
#        150
#        21183
#        40231
#        61637
#        75787
#        99123
#
# Disc length: 1652 seconds
#
# Revision: 0
# Processed by: cddbd v1.5.1PL0 Copyright (c) Steve Scherf et al.
# Submitted via: ExactAudioCopy v0.95b3
#
DISCID=30067206
DTITLE=Kozma Orsi - Egy szó
DYEAR=2005
DGENRE=Blues
TTITLE0=Egy szó
TTITLE1=Túl szép
TTITLE2=Holnap
TTITLE3=Megcsaló
TTITLE4=A nõ fájdalmára
TTITLE5=[Multimedia materials]
EXTD=ALGOFLEX-M(R) Promo CD
EXTT0=
EXTT1=
EXTT2=
EXTT3=
EXTT4=
EXTT5=
PLAYORDER=
